<?xml version="1.0" encoding="UTF-8"?>
<svg width="752pt" height="752pt" version="1.1" viewBox="0 0 752 752" xmlns="http://www.w3.org/2000/svg">
 <g fill="#fff">
  <path d="m244.54 359.19c0 3.9258 3.1797 7.1055 7.1055 7.1055h120.62c3.9219 0 7.1016-3.1797 7.1016-7.1055v-80.508l28.414 10.184c1.8047 0.64453 3.7891 0.53516 5.5078-0.30078 1.7227-0.83984 3.0312-2.3359 3.6328-4.1523l13.59-40.871h0.003907c0.98828-2.9727-0.089844-6.2461-2.6523-8.0508l-51.527-36.039c-0.44141-0.30469-0.91797-0.55859-1.418-0.75781h-39.879c-3.9219 0-7.1016 3.1836-7.1016 7.1055-0.30078 5.5039-3.4102 10.465-8.2344 13.133-4.8203 2.6719-10.68 2.6719-15.5 0-4.8242-2.668-7.9336-7.6289-8.2344-13.133 0-3.9219-3.1797-7.1055-7.1016-7.1055h-39.875c-0.48438 0.1875-0.94531 0.42578-1.375 0.71094l-51.574 36.324c-2.5625 1.8047-3.6406 5.0781-2.6523 8.0508l13.59 40.871h0.003907c0.60156 1.8164 1.9102 3.3125 3.6328 4.1484 1.7188 0.83984 3.707 0.94922 5.5078 0.30078l28.414-10.23zm161.35-85.953-26.52-9.4727v-44.801l36.133 25.383zm-147.14-60.855h23.68c2.1445 8.8438 8.1602 16.246 16.375 20.156 8.2188 3.9102 17.758 3.9102 25.973 0 8.2148-3.9102 14.23-11.312 16.375-20.156h23.68v139.71h-106.08zm-14.207 51.383-26.52 9.4727-9.4727-28.938 36.133-25.383z"/>
  <path d="m555.96 423.36-51.523-36.371c-0.45703-0.30859-0.95312-0.5625-1.4688-0.75781h-39.828c-3.9219 0-7.1055 3.1797-7.1055 7.1055-0.29688 5.5039-3.4102 10.465-8.2305 13.133-4.8242 2.668-10.68 2.668-15.504 0-4.8203-2.668-7.9297-7.6289-8.2305-13.133 0-3.9258-3.1797-7.1055-7.1055-7.1055h-39.781c-0.49609 0.18359-0.97266 0.42188-1.418 0.71094l-51.859 36.418c-2.5625 1.8047-3.6406 5.0781-2.6523 8.0508l13.59 40.871h0.003906c0.60156 1.8164 1.9102 3.3125 3.6328 4.1484 1.7188 0.83984 3.707 0.94922 5.5078 0.30078l28.414-10.23v80.512c0 3.9219 3.1797 7.1016 7.1055 7.1016h120.86c3.9219 0 7.1055-3.1797 7.1055-7.1016v-80.508l28.414 10.184v-0.003906c1.8008 0.64844 3.7852 0.53906 5.5078-0.30078 1.7188-0.83594 3.0312-2.332 3.6328-4.1484l13.59-40.871c0.96875-2.9609-0.10938-6.207-2.6523-8.0039zm-183.32 27.988-26.52 9.4727-9.4727-28.938 36.133-25.383zm14.207 88.277v-139.66h23.68c2.1445 8.8398 8.1602 16.246 16.375 20.156s17.754 3.9102 25.969 0 14.234-11.316 16.379-20.156h23.68v139.66zm147.14-78.805-26.52-9.4727v-44.848l36.133 25.383z"/>
  <path d="m429.75 300.23c-0.003906 1.9102 0.76562 3.7383 2.1289 5.0703l16.766 16.766v-0.003906c2.8008 2.6094 7.1602 2.5312 9.8672-0.17188 2.7031-2.707 2.7812-7.0664 0.17188-9.8672l-4.7344-4.7344h11.555c5.0234 0 9.8438 1.9961 13.395 5.5469 3.5547 3.5547 5.5508 8.3711 5.5508 13.395v28.652c0 3.9258 3.1797 7.1055 7.1016 7.1055 3.9219 0 7.1055-3.1797 7.1055-7.1055v-28.699c0-8.793-3.4922-17.223-9.7109-23.441-6.2188-6.2148-14.648-9.707-23.441-9.707h-11.367l4.7383-4.7383c2.6055-2.7969 2.5312-7.1602-0.17578-9.8633-2.7031-2.707-7.0664-2.7852-9.8633-0.17578l-16.195 16.195h-0.003906c-1.8398 1.3477-2.9141 3.5-2.8867 5.7773z"/>
  <path d="m311.17 445.24-16.766-16.766c-2.7969-2.6055-7.1602-2.5312-9.8633 0.17578-2.707 2.7031-2.7852 7.0664-0.17578 9.8672l4.7344 4.7344h-11.555c-5.0234 0-9.8398-1.9961-13.395-5.5469-3.5508-3.5547-5.5469-8.3711-5.5469-13.395v-28.559c0-3.9219-3.1797-7.1055-7.1055-7.1055-3.9219 0-7.1016 3.1836-7.1016 7.1055v28.652c0 8.793 3.4922 17.223 9.707 23.441 6.2188 6.2148 14.648 9.707 23.441 9.707h11.414l-4.7344 4.7344v0.003906c-1.4102 1.3125-2.2266 3.1445-2.2617 5.0703-0.035157 1.9258 0.71875 3.7852 2.082 5.1484 1.3594 1.3633 3.2188 2.1133 5.1484 2.0781 1.9258-0.03125 3.7578-0.84766 5.0703-2.2578l16.195-16.195c1.5859-1.2578 2.5586-3.1328 2.6641-5.1523 0.10938-2.0234-0.65234-3.9922-2.0938-5.4102z"/>
 </g>
</svg>
